<svg width="1032" height="116" viewBox="0 0 1032 116" fill="none" xmlns="http://www.w3.org/2000/svg">
<path d="M584.36 9.47003H653.56V22.64H599.59V93.3401H653.56V106.74H584.36V9.47003Z" fill="#4FA0CA"/>
<path d="M664.711 79.69C661.301 72.99 659.601 65.83 659.601 58.67C659.601 51.62 661.301 44.47 664.711 37.76C673.011 21.51 691.861 8.10004 716.301 8.10004C727.431 8.10004 738.001 11.05 746.641 16.05L748.231 16.84L740.281 28.09L738.121 26.95C731.761 23.2 724.261 21.27 716.301 21.27C699.371 21.27 685.621 30.36 679.141 42.18C676.301 47.41 674.821 52.98 674.821 58.66C674.821 64.34 676.301 70.02 679.141 75.25C685.621 87.07 699.371 96.16 716.301 96.16C724.251 96.16 731.751 94.12 738.121 90.48L740.281 89.3401L748.231 100.59L746.641 101.38C738.001 106.38 727.441 109.33 716.301 109.33C691.861 109.35 673.001 95.94 664.711 79.69Z" fill="#4FA0CA"/>
<path d="M758.92 9.47003H810.51C836.08 9.47003 850.05 21.83 850.05 41.01C850.05 52.1 845.62 62.5 832.21 68.39L851.41 106.86H834.59L817.43 72.0901C815.16 72.3201 812.77 72.44 810.5 72.44H787.55L787.32 59.16H810.38C826.74 59.04 834.81 53.2701 834.81 41.0201C834.81 32.13 831.06 26.12 819.93 23.69C816.86 23.11 813.45 22.65 810.27 22.65H774.14V106.86H758.91V9.47003H758.92Z" fill="#4FA0CA"/>
<path d="M865.75 9.47003H934.95V22.64H880.98V93.3401H934.95V106.74H865.75V9.47003Z" fill="#4FA0CA"/>
<path d="M981.091 22.84H945.521V9.47003H1031.76V22.84H996.31V106.85H981.091V22.84V22.84Z" fill="#4FA0CA"/>
<path d="M474.101 35.86C474.101 28.45 477.141 21.44 482.781 16.19C488.421 11.07 495.951 8.10999 503.911 8.10999H557.111L545.681 20.51H503.911C499.421 20.51 495.231 22.13 492.191 24.96C489.011 27.79 487.421 31.7 487.421 35.87C487.421 39.91 489.011 43.82 492.191 46.78C495.231 49.61 499.421 51.23 503.911 51.23H542.741C550.701 51.23 558.221 54.19 563.871 59.31C569.371 64.57 572.551 71.57 572.551 78.98C572.551 86.39 569.371 93.4 563.871 98.52C558.231 103.77 550.701 106.74 542.741 106.74H493.451L504.451 94.34H542.751C547.091 94.34 551.431 92.72 554.471 89.89C557.511 86.93 559.241 83.15 559.241 78.98C559.241 74.94 557.501 70.9 554.471 68.07C551.431 65.24 547.091 63.62 542.751 63.62H503.921C495.961 63.62 488.441 60.66 482.791 55.4C477.141 50.15 474.101 43.14 474.101 35.86Z" fill="#4FA0CA"/>
<path d="M909.891 51.52H896.721V64.69H909.891V51.52Z" fill="#4FA0CA"/>
<path d="M628.5 51.52H615.33V64.69H628.5V51.52Z" fill="#4FA0CA"/>
<path d="M222.48 9.47003L181.12 106.85H206.23L232.71 43.22L259.18 106.85H284.29L242.93 9.47003H222.48Z" fill="white"/>
<path d="M371.571 9.23999H278.851V28.56H313.401V106.85H337.151V28.56H371.571V9.23999Z" fill="white"/>
<path d="M422.38 9.47003H401.93L360.57 106.85H385.68L412.15 43.22L438.63 106.85H463.74L422.38 9.47003Z" fill="white"/>
<path d="M137.58 11.29C133.26 10.15 128.72 9.70003 124.29 9.47003C119.97 9.24003 115.65 9.36002 111.34 9.36002L90.9205 9.28003V0.470032V0.160034H0.230469V115.84H90.9105V115.77V106.84H123.71C129.51 106.84 136.44 105.59 141.66 103.89C165.64 95.94 178.48 77.07 178.48 58.1C178.49 38.11 163.83 17.88 137.58 11.29ZM56.7505 72.6501C50.7805 72.6501 45.6205 69.2 43.1305 64.2H19.9205C18.8805 64.2 18.0205 63.35 18.0205 62.3V52.54C18.0205 51.5 18.8705 50.64 19.9205 50.64H43.1305C45.6305 45.63 50.7805 42.19 56.7505 42.19C65.1605 42.19 71.9805 49.01 71.9805 57.42C71.9805 65.83 65.1605 72.6501 56.7505 72.6501ZM132.36 86.17C129.63 86.97 126.11 87.76 123.5 87.76H104.52V28.56H123.5C126.34 28.56 130.09 29.2401 132.93 30.1501C146.79 34.5801 154.52 46.74 154.52 58.1C154.51 69.69 146.67 81.96 132.36 86.17Z" fill="white"/>
</svg>
