<?xml version="1.0" encoding="utf-8"?>
<!-- Generator: Adobe Illustrator 24.3.0, SVG Export Plug-In . SVG Version: 6.00 Build 0)  -->
<svg version="1.1" id="Layer_1" xmlns="http://www.w3.org/2000/svg" xmlns:xlink="http://www.w3.org/1999/xlink" x="0px" y="0px"
	 viewBox="0 0 1080 1080" style="enable-background:new 0 0 1080 1080;" xml:space="preserve">
<style type="text/css">
	.st0{fill:#4FA0CA;}
	.st1{fill:#FFFFFF;}
</style>
<g>
	<path class="st0" d="M608.36,491.47h69.2v13.17h-53.97v70.7h53.97v13.4h-69.2V491.47z"/>
	<path class="st0" d="M688.71,561.69c-3.41-6.7-5.11-13.86-5.11-21.02c0-7.05,1.7-14.2,5.11-20.91
		c8.3-16.25,27.15-29.66,51.59-29.66c11.13,0,21.7,2.95,30.34,7.95l1.59,0.79l-7.95,11.25l-2.16-1.14
		c-6.36-3.75-13.86-5.68-21.82-5.68c-16.93,0-30.68,9.09-37.16,20.91c-2.84,5.23-4.32,10.8-4.32,16.48s1.48,11.36,4.32,16.59
		c6.48,11.82,20.23,20.91,37.16,20.91c7.95,0,15.45-2.04,21.82-5.68l2.16-1.14l7.95,11.25l-1.59,0.79c-8.64,5-19.2,7.95-30.34,7.95
		C715.86,591.35,697,577.94,688.71,561.69z"/>
	<path class="st0" d="M782.92,491.47h51.59c25.57,0,39.54,12.36,39.54,31.54c0,11.09-4.43,21.49-17.84,27.38l19.2,38.47h-16.82
		l-17.16-34.77c-2.27,0.23-4.66,0.35-6.93,0.35h-22.95l-0.23-13.28h23.06c16.36-0.12,24.43-5.89,24.43-18.14
		c0-8.89-3.75-14.9-14.88-17.33c-3.07-0.58-6.48-1.04-9.66-1.04h-36.13v84.21h-15.23V491.47z"/>
	<path class="st0" d="M889.75,491.47h69.2v13.17h-53.97v70.7h53.97v13.4h-69.2V491.47z"/>
	<path class="st0" d="M1005.09,504.84h-35.57v-13.37h86.24v13.37h-35.45v84.01h-15.22V504.84z"/>
	<path class="st0" d="M498.1,517.86c0-7.41,3.04-14.42,8.68-19.67c5.64-5.12,13.17-8.08,21.13-8.08h53.2l-11.43,12.4h-41.77
		c-4.49,0-8.68,1.62-11.72,4.45c-3.18,2.83-4.77,6.74-4.77,10.91c0,4.04,1.59,7.95,4.77,10.91c3.04,2.83,7.23,4.45,11.72,4.45h38.83
		c7.96,0,15.48,2.96,21.13,8.08c5.5,5.26,8.68,12.26,8.68,19.67s-3.18,14.42-8.68,19.54c-5.64,5.25-13.17,8.22-21.13,8.22h-49.29
		l11-12.4h38.3c4.34,0,8.68-1.62,11.72-4.45c3.04-2.96,4.77-6.74,4.77-10.91c0-4.04-1.74-8.08-4.77-10.91
		c-3.04-2.83-7.38-4.45-11.72-4.45h-38.83c-7.96,0-15.48-2.96-21.13-8.22C501.14,532.15,498.1,525.14,498.1,517.86z"/>
	<rect x="920.72" y="533.52" class="st0" width="13.17" height="13.17"/>
	<rect x="639.33" y="533.52" class="st0" width="13.17" height="13.17"/>
	<polygon class="st1" points="246.48,491.47 205.12,588.85 230.23,588.85 256.71,525.22 283.18,588.85 308.29,588.85 266.93,491.47 
			"/>
	<polygon class="st1" points="395.57,491.24 302.85,491.24 302.85,510.56 337.4,510.56 337.4,588.85 361.15,588.85 361.15,510.56 
		395.57,510.56 	"/>
	<polygon class="st1" points="446.38,491.47 425.93,491.47 384.57,588.85 409.68,588.85 436.15,525.22 462.63,588.85 487.74,588.85 
			"/>
	<path class="st1" d="M161.58,493.29c-4.32-1.14-8.86-1.59-13.29-1.82c-4.32-0.23-8.64-0.11-12.95-0.11l-20.42-0.08v-8.81v-0.31
		H24.23v115.68h90.68v-0.07v-8.93h32.8c5.8,0,12.73-1.25,17.95-2.95c23.98-7.95,36.82-26.82,36.82-45.79
		C202.49,520.11,187.83,499.88,161.58,493.29z M80.75,554.65c-5.97,0-11.13-3.45-13.62-8.45H43.92c-1.04,0-1.9-0.85-1.9-1.9v-9.76
		c0-1.04,0.85-1.9,1.9-1.9h23.21c2.5-5.01,7.65-8.45,13.62-8.45c8.41,0,15.23,6.82,15.23,15.23
		C95.98,547.83,89.16,554.65,80.75,554.65z M156.36,568.17c-2.73,0.8-6.25,1.59-8.86,1.59h-18.98v-59.2h18.98
		c2.84,0,6.59,0.68,9.43,1.59c13.86,4.43,21.59,16.59,21.59,27.95C178.51,551.69,170.67,563.96,156.36,568.17z"/>
</g>
</svg>
